<svg width="29" height="26" viewBox="0 0 29 26" fill="none" xmlns="http://www.w3.org/2000/svg">
<g clip-path="url(#clip0)">
<path d="M27.8797 10.9246C27.6449 10.1941 26.7727 9.99489 26.1353 9.89527C26.5714 9.4304 27.1752 8.76628 26.9069 8.03576C26.5378 6.87356 24.5922 6.14304 22.3446 6.27586C20.9692 6.37548 19.7616 6.87356 18.8894 7.30524C19.0571 6.44189 19.1913 5.14687 18.8223 3.75223C18.252 1.29502 16.8431 0 15.7696 0C14.998 0 14.5284 0.763729 14.2265 1.32822C13.9246 0.763729 13.4549 0 12.6834 0C11.6099 0 10.201 1.29502 9.59713 3.75223C9.26167 5.04725 9.36231 6.34227 9.4965 7.27203C8.6243 6.84036 7.41665 6.34227 6.07481 6.27586C3.86077 6.10983 1.94865 6.87356 1.5461 8.03576C1.31128 8.76628 1.91511 9.4304 2.31766 9.89527C1.68028 10.0281 0.80809 10.1941 0.573268 10.9246C0.237808 11.9208 1.04291 13.6475 3.2234 15.0089C4.36396 15.7063 5.63871 16.0383 6.578 16.1711C5.90708 16.8352 5.06843 17.8314 4.56524 19.06C3.59241 21.4176 3.96141 23.2771 4.83361 23.908C5.03488 24.0409 5.2697 24.1073 5.53807 24.1073C6.00771 24.1073 6.47736 23.908 6.84636 23.7088C6.77927 24.3397 6.67863 25.2031 7.31601 25.6679C7.61792 25.8672 8.02047 26 8.49012 26C9.56359 26 10.8719 25.4355 12.0795 24.4393C13.153 23.5428 13.8239 22.3806 14.1929 21.5837C14.629 22.4802 15.3335 23.576 16.3734 24.4393C17.5811 25.4355 18.8558 26 19.9293 26C20.3989 26 20.8015 25.9004 21.1034 25.6679C21.7408 25.2031 21.6401 24.3397 21.573 23.7088C21.9756 23.8748 22.4117 24.1073 22.8813 24.1073C23.1497 24.1073 23.3845 24.0409 23.5858 23.8748C24.458 23.2439 24.827 21.3844 23.8542 19.0268C23.351 17.765 22.5123 16.7688 21.8079 16.1047C22.6801 16.0051 23.9883 15.7063 25.196 14.9425C27.41 13.6475 28.2151 11.9208 27.8797 10.9246ZM14.2936 7.93614C14.5284 7.93614 14.7297 8.2682 14.7297 9.26437C14.7297 10.2605 14.4948 11.5556 14.2936 11.5556C14.0923 11.5556 13.8575 10.2605 13.8575 9.26437C13.8239 8.2682 14.0252 7.93614 14.2936 7.93614ZM8.89267 11.7216C8.95976 11.4891 9.32877 11.3895 10.3016 11.7216C11.2744 12.0204 12.415 12.6513 12.3814 12.8506C12.3144 13.0498 11.0061 12.8838 10.0332 12.5517C9.09394 12.2529 8.82558 11.954 8.89267 11.7216ZM12.046 17.1341C11.4422 17.931 11.1067 18.0971 10.9054 17.9642C10.7042 17.8314 10.7377 17.4329 11.3415 16.636C11.9454 15.8391 12.8846 14.9093 13.0524 15.0421C13.2201 15.1418 12.6498 16.3372 12.046 17.1341ZM17.4804 18.0306C17.2792 18.1635 16.9102 18.0306 16.3399 17.2005C15.736 16.4036 15.1658 15.2082 15.3335 15.0754C15.5012 14.9425 16.4741 15.8723 17.0443 16.6692C17.6482 17.4994 17.6817 17.8646 17.4804 18.0306ZM17.7153 14.6105C17.6482 14.7765 17.4804 14.9093 17.3127 14.9093C17.2792 14.9093 17.2121 14.9093 17.1785 14.8761L14.6626 14.0792V16.7024C14.6626 16.9349 14.4613 17.1009 14.26 17.1009C14.0252 17.1009 13.8575 16.9017 13.8575 16.7024V14.0792L11.3415 14.8761C11.308 14.8761 11.2409 14.9093 11.2073 14.9093C11.0396 14.9093 10.8719 14.8097 10.8048 14.6105C10.7377 14.378 10.8383 14.1456 11.0732 14.0792L13.5891 13.2822L12.046 11.1571C11.9118 10.9579 11.9453 10.7254 12.1466 10.5926C12.3479 10.4598 12.5827 10.493 12.7169 10.6922L14.26 12.8174L15.8031 10.6922C15.9373 10.493 16.2057 10.4598 16.3734 10.5926C16.5747 10.7254 16.6082 10.9911 16.4741 11.1571L14.8974 13.2822L17.4133 14.0792C17.6482 14.1456 17.7823 14.378 17.7153 14.6105ZM18.4533 12.6513C17.4804 12.9502 16.1721 13.1162 16.1051 12.9502C16.038 12.751 17.2121 12.1201 18.1849 11.8212C19.1577 11.5223 19.5267 11.5888 19.5938 11.8212C19.6609 12.0536 19.4261 12.3525 18.4533 12.6513Z" fill="#FF6D88" fill-opacity="0.1"/>
<g clip-path="url(#clip1)">
<path d="M27.8797 10.9246C27.6449 10.1941 26.7727 9.99489 26.1353 9.89527C26.5714 9.4304 27.1752 8.76628 26.9069 8.03576C26.5378 6.87356 24.5922 6.14304 22.3446 6.27586C20.9692 6.37548 19.7616 6.87356 18.8894 7.30524C19.0571 6.44189 19.1913 5.14687 18.8223 3.75223C18.252 1.29502 16.8431 0 15.7696 0C14.998 0 14.5284 0.763729 14.2265 1.32822C13.9246 0.763729 13.4549 0 12.6834 0C11.6099 0 10.201 1.29502 9.59713 3.75223C9.26167 5.04725 9.36231 6.34227 9.4965 7.27203C8.6243 6.84036 7.41665 6.34227 6.07481 6.27586C3.86077 6.10983 1.94865 6.87356 1.5461 8.03576C1.31128 8.76628 1.91511 9.4304 2.31766 9.89527C1.68028 10.0281 0.80809 10.1941 0.573268 10.9246C0.237808 11.9208 1.04291 13.6475 3.2234 15.0089C4.36396 15.7063 5.63871 16.0383 6.578 16.1711C5.90708 16.8352 5.06843 17.8314 4.56524 19.06C3.59241 21.4176 3.96141 23.2771 4.83361 23.908C5.03488 24.0409 5.2697 24.1073 5.53807 24.1073C6.00771 24.1073 6.47736 23.908 6.84636 23.7088C6.77927 24.3397 6.67863 25.2031 7.31601 25.6679C7.61792 25.8672 8.02047 26 8.49012 26C9.56359 26 10.8719 25.4355 12.0795 24.4393C13.153 23.5428 13.8239 22.3806 14.1929 21.5837C14.629 22.4802 15.3335 23.576 16.3734 24.4393C17.5811 25.4355 18.8558 26 19.9293 26C20.3989 26 20.8015 25.9004 21.1034 25.6679C21.7408 25.2031 21.6401 24.3397 21.573 23.7088C21.9756 23.8748 22.4117 24.1073 22.8813 24.1073C23.1497 24.1073 23.3845 24.0409 23.5858 23.8748C24.458 23.2439 24.827 21.3844 23.8542 19.0268C23.351 17.765 22.5123 16.7688 21.8079 16.1047C22.6801 16.0051 23.9883 15.7063 25.196 14.9425C27.41 13.6475 28.2151 11.9208 27.8797 10.9246ZM14.2936 7.93614C14.5284 7.93614 14.7297 8.2682 14.7297 9.26437C14.7297 10.2605 14.4948 11.5556 14.2936 11.5556C14.0923 11.5556 13.8575 10.2605 13.8575 9.26437C13.8239 8.2682 14.0252 7.93614 14.2936 7.93614ZM8.89267 11.7216C8.95976 11.4891 9.32877 11.3895 10.3016 11.7216C11.2744 12.0204 12.415 12.6513 12.3814 12.8506C12.3144 13.0498 11.0061 12.8838 10.0332 12.5517C9.09394 12.2529 8.82558 11.954 8.89267 11.7216ZM12.046 17.1341C11.4422 17.931 11.1067 18.0971 10.9054 17.9642C10.7042 17.8314 10.7377 17.4329 11.3415 16.636C11.9454 15.8391 12.8846 14.9093 13.0524 15.0421C13.2201 15.1418 12.6498 16.3372 12.046 17.1341ZM17.4804 18.0306C17.2792 18.1635 16.9102 18.0306 16.3399 17.2005C15.736 16.4036 15.1658 15.2082 15.3335 15.0754C15.5012 14.9425 16.4741 15.8723 17.0443 16.6692C17.6482 17.4994 17.6817 17.8646 17.4804 18.0306ZM17.7153 14.6105C17.6482 14.7765 17.4804 14.9093 17.3127 14.9093C17.2792 14.9093 17.2121 14.9093 17.1785 14.8761L14.6626 14.0792V16.7024C14.6626 16.9349 14.4613 17.1009 14.26 17.1009C14.0252 17.1009 13.8575 16.9017 13.8575 16.7024V14.0792L11.3415 14.8761C11.308 14.8761 11.2409 14.9093 11.2073 14.9093C11.0396 14.9093 10.8719 14.8097 10.8048 14.6105C10.7377 14.378 10.8383 14.1456 11.0732 14.0792L13.5891 13.2822L12.046 11.1571C11.9118 10.9579 11.9453 10.7254 12.1466 10.5926C12.3479 10.4598 12.5827 10.493 12.7169 10.6922L14.26 12.8174L15.8031 10.6922C15.9373 10.493 16.2057 10.4598 16.3734 10.5926C16.5747 10.7254 16.6082 10.9911 16.4741 11.1571L14.8974 13.2822L17.4133 14.0792C17.6482 14.1456 17.7823 14.378 17.7153 14.6105ZM18.4533 12.6513C17.4804 12.9502 16.1721 13.1162 16.1051 12.9502C16.038 12.751 17.2121 12.1201 18.1849 11.8212C19.1577 11.5223 19.5267 11.5888 19.5938 11.8212C19.6609 12.0536 19.4261 12.3525 18.4533 12.6513Z" fill="#FF6D88"/>
</g>
</g>
<defs>
<clipPath id="clip0">
<path d="M0.5 0H28.5V26H0.5V0Z" fill="white"/>
</clipPath>
<clipPath id="clip1">
<rect x="0.5" y="21.9375" width="28" height="4.0625" fill="white"/>
</clipPath>
</defs>
</svg>
