<svg viewBox="0 0 63.34 92.86" xmlns="http://www.w3.org/2000/svg"><g fill="#595959"><rect height="3.41" rx=".98" width="62.99" x=".35" y=".93"/><rect height="3.41" rx=".98" width="62.99" x=".35" y="50.92"/><rect height="3.41" rx=".98" width="62.99" x=".35" y="25.93"/><path d="m13.34 78.45a1 1 0 0 1 .29.7v12.57a.94.94 0 0 1 -.28.7 1 1 0 0 1 -.74.29 1 1 0 0 1 -.75-.28.94.94 0 0 1 -.29-.71v-9.62l-4 6.11a1.55 1.55 0 0 1 -.36.31.74.74 0 0 1 -.45.1.66.66 0 0 1 -.42-.1 1.42 1.42 0 0 1 -.37-.31l-4.05-6.3v9.81a1 1 0 0 1 -.26.71.88.88 0 0 1 -.7.28.86.86 0 0 1 -.67-.28 1 1 0 0 1 -.29-.71v-12.57a1 1 0 0 1 .29-.7 1 1 0 0 1 .73-.3 1 1 0 0 1 .49.13 1 1 0 0 1 .38.33l4.92 7.46 5-7.46a1 1 0 0 1 .83-.46 1.14 1.14 0 0 1 .7.3z"/><path d="m28.1 91.09a1 1 0 0 1 .28.69.88.88 0 0 1 -.28.68 1 1 0 0 1 -.72.25h-7.23a.93.93 0 0 1 -.7-.29.91.91 0 0 1 -.29-.7v-12.55a1 1 0 0 1 .29-.71 1 1 0 0 1 .7-.29h7.23a1 1 0 0 1 .72.27.93.93 0 0 1 .28.71.85.85 0 0 1 -.28.67 1 1 0 0 1 -.72.26h-6.17v4.24h5.24a1 1 0 0 1 .71.27.9.9 0 0 1 .28.69.84.84 0 0 1 -.28.68 1 1 0 0 1 -.71.25h-5.24v4.59h6.17a1 1 0 0 1 .72.29z"/><path d="m44.58 78.43a.89.89 0 0 1 .25.66v12.61a1 1 0 0 1 -.28.72.91.91 0 0 1 -.71.29 1.37 1.37 0 0 1 -.45-.07.7.7 0 0 1 -.34-.22l-8.17-10.63v10a.93.93 0 0 1 -1.56.66 1 1 0 0 1 -.24-.66v-12.62a1 1 0 0 1 .28-.72.94.94 0 0 1 .69-.28 1.12 1.12 0 0 1 .48.1.77.77 0 0 1 .35.25l8.12 10.66v-10.09a.86.86 0 0 1 .26-.66.89.89 0 0 1 .65-.26.85.85 0 0 1 .67.26z"/><path d="m61.36 78.43a1 1 0 0 1 .26.72v8a6 6 0 0 1 -.73 3 5.23 5.23 0 0 1 -2 2 5.66 5.66 0 0 1 -2.88.74 5.78 5.78 0 0 1 -2.91-.74 5.19 5.19 0 0 1 -2-2 6 6 0 0 1 -.73-3v-8a1 1 0 0 1 .29-.72 1.06 1.06 0 0 1 1.45 0 1 1 0 0 1 .3.71v8a3.74 3.74 0 0 0 .5 1.94 3.56 3.56 0 0 0 1.33 1.34 3.47 3.47 0 0 0 1.78.48 3.7 3.7 0 0 0 1.85-.48 3.64 3.64 0 0 0 1.36-1.34 3.75 3.75 0 0 0 .51-1.94v-8a1 1 0 0 1 .25-.72.86.86 0 0 1 .69-.28.88.88 0 0 1 .68.29z"/></g><path d="m.35 0h62.99v92.71h-62.99z" fill="none"/></svg>