<svg viewBox="0 0 88.08 92.92" xmlns="http://www.w3.org/2000/svg"><g fill="#595959"><path d="m49.54.87a23.7 23.7 0 0 0 -16.64 40.59l-13.9 13.95a1.18 1.18 0 0 0 0 1.68 1.16 1.16 0 0 0 .84.35 1.18 1.18 0 0 0 .85-.35l14-14a23.71 23.71 0 1 0 14.85-42.22zm0 45.05a21.34 21.34 0 1 1 21.33-21.34 21.36 21.36 0 0 1 -21.33 21.34z" stroke="#595959" stroke-miterlimit="10"/><path d="m3.46 92.5a7.09 7.09 0 0 1 -2.23-1.38 1.11 1.11 0 0 1 -.43-.86 1 1 0 0 1 .29-.67.91.91 0 0 1 .68-.3.84.84 0 0 1 .61.23 5.7 5.7 0 0 0 1.71 1.13 5.3 5.3 0 0 0 2 .36 3.9 3.9 0 0 0 2.21-.6 1.78 1.78 0 0 0 .9-1.52 1.92 1.92 0 0 0 -.9-1.67 8.37 8.37 0 0 0 -2.69-1 7.12 7.12 0 0 1 -3.28-1.42 3.47 3.47 0 0 1 -1.16-2.8 3.65 3.65 0 0 1 .65-2.15 4.09 4.09 0 0 1 1.78-1.39 6.42 6.42 0 0 1 2.58-.46 7 7 0 0 1 2.43.42 5.14 5.14 0 0 1 1.85 1.1 1.2 1.2 0 0 1 .48.89 1 1 0 0 1 -.28.67.94.94 0 0 1 -.68.29.72.72 0 0 1 -.48-.17 4.35 4.35 0 0 0 -1.5-.95 5 5 0 0 0 -1.83-.38 3.79 3.79 0 0 0 -2.17.58 1.84 1.84 0 0 0 0 3.06 7.43 7.43 0 0 0 2.44.91 13.19 13.19 0 0 1 2.65.84 3.8 3.8 0 0 1 1.59 1.33 4 4 0 0 1 .56 2.22 3.57 3.57 0 0 1 -.71 2.19 4.39 4.39 0 0 1 -1.84 1.4 6.09 6.09 0 0 1 -2.55.52 7.85 7.85 0 0 1 -2.68-.42z"/><path d="m24.85 91.09a1 1 0 0 1 .28.69.92.92 0 0 1 -.28.68 1 1 0 0 1 -.72.25h-7.23a1 1 0 0 1 -1-1v-12.54a1 1 0 0 1 1-1h7.23a1 1 0 0 1 .72.27 1 1 0 0 1 .28.71.88.88 0 0 1 -.28.67 1 1 0 0 1 -.72.26h-6.13v4.24h5.23a1 1 0 0 1 .72.27.9.9 0 0 1 .28.69.84.84 0 0 1 -.28.68 1 1 0 0 1 -.72.25h-5.23v4.59h6.17a1 1 0 0 1 .68.29z"/><path d="m41.06 91.82a.94.94 0 0 1 -.93 1 .85.85 0 0 1 -.53-.18 1.29 1.29 0 0 1 -.39-.49l-1.29-3h-6.42l-1.26 3.07a1 1 0 0 1 -.34.48.93.93 0 0 1 -.53.17.91.91 0 0 1 -.67-.23.85.85 0 0 1 -.23-.62c0-.06 0-.17 0-.34l5.3-12.84a1.16 1.16 0 0 1 .41-.51.85.85 0 0 1 .59-.13 1 1 0 0 1 .56.17.88.88 0 0 1 .35.47l5.32 12.59a1.23 1.23 0 0 1 .06.39zm-8.77-4.65h4.85l-2.44-5.82z"/><path d="m56.64 91.42a.8.8 0 0 1 .13.44.76.76 0 0 1 -.28.65 1.1 1.1 0 0 1 -.68.2 1.24 1.24 0 0 1 -.66-.16 2.6 2.6 0 0 1 -1-1.14 5.47 5.47 0 0 1 -.39-2.33 1.85 1.85 0 0 0 -.63-1.54 2.51 2.51 0 0 0 -1.62-.5h-4.2v4.68a1 1 0 0 1 -.24.71.83.83 0 0 1 -.65.28 1.19 1.19 0 0 1 -.82-.29.87.87 0 0 1 -.34-.7v-12.55a1 1 0 0 1 .29-.71 1 1 0 0 1 .71-.29h5.83a4 4 0 0 1 2.06.55 4.2 4.2 0 0 1 1.5 1.52 4.28 4.28 0 0 1 .56 2.17 4 4 0 0 1 -.63 2.17 4.06 4.06 0 0 1 -1.58 1.51 3 3 0 0 1 1.22 1.1 3.29 3.29 0 0 1 .49 1.64 12.43 12.43 0 0 0 .18 1.61.91.91 0 0 0 .46.61 1.06 1.06 0 0 1 .29.37zm-3.64-6.52a2.79 2.79 0 0 0 .76-1 3.48 3.48 0 0 0 .29-1.43 2.5 2.5 0 0 0 -.61-1.69 1.94 1.94 0 0 0 -1.49-.7h-4.66v5.24h4.71a1.81 1.81 0 0 0 1-.42z"/><path d="m72.1 79.85a1.07 1.07 0 0 1 -.25.69.8.8 0 0 1 -.68.33 1.22 1.22 0 0 1 -.56-.14 5.54 5.54 0 0 0 -2.79-.73 5.4 5.4 0 0 0 -2.75.69 4.65 4.65 0 0 0 -1.86 1.92 5.92 5.92 0 0 0 -.67 2.83 6 6 0 0 0 .69 3 4.7 4.7 0 0 0 1.89 1.91 5.61 5.61 0 0 0 2.7.65 5.33 5.33 0 0 0 2.79-.75 1.19 1.19 0 0 1 .54-.12.85.85 0 0 1 .72.35 1 1 0 0 1 .25.67.84.84 0 0 1 -.13.46 1 1 0 0 1 -.37.35 8 8 0 0 1 -1.81.72 7.74 7.74 0 0 1 -2 .27 7.91 7.91 0 0 1 -3.7-.95 6.75 6.75 0 0 1 -2.7-2.6 7.68 7.68 0 0 1 -1-4 7.55 7.55 0 0 1 1-3.79 7 7 0 0 1 2.59-2.61 7.83 7.83 0 0 1 7.57 0 .88.88 0 0 1 .53.85z"/><path d="m87.79 78.45a1 1 0 0 1 .29.72v12.53a1.08 1.08 0 0 1 -.31.72 1 1 0 0 1 -.75.29 1 1 0 0 1 -.72-.29 1 1 0 0 1 -.3-.72v-5.38h-7.37v5.38a.93.93 0 0 1 -.32.72 1 1 0 0 1 -.72.29 1 1 0 0 1 -.74-.29 1 1 0 0 1 -.28-.72v-12.53a1 1 0 0 1 .29-.71 1 1 0 0 1 .75-.29 1 1 0 0 1 .71.29 1 1 0 0 1 .31.71v5.23h7.37v-5.23a.93.93 0 0 1 .31-.71 1.05 1.05 0 0 1 .73-.29 1.09 1.09 0 0 1 .75.28z"/></g><path d="m0 0h87.87v92.71h-87.87z" fill="none"/></svg>