<svg viewBox="0 0 71.66 92.92" xmlns="http://www.w3.org/2000/svg"><g fill="#595959"><rect height="3.41" rx=".98" transform="matrix(.70710678 .70710678 -.70710678 .70710678 30.47 -18.29)" width="62.99" x="5.82" y="25.93"/><rect height="3.41" rx=".98" transform="matrix(.70710678 -.70710678 .70710678 .70710678 -8.61 34.48)" width="62.99" x="5.82" y="25.93"/><path d="m12.59 79.85a1.07 1.07 0 0 1 -.25.69.81.81 0 0 1 -.68.33 1.26 1.26 0 0 1 -.57-.14 5.47 5.47 0 0 0 -2.78-.73 5.37 5.37 0 0 0 -2.75.69 4.65 4.65 0 0 0 -1.86 1.92 5.8 5.8 0 0 0 -.7 2.83 6 6 0 0 0 .69 3 4.7 4.7 0 0 0 1.89 1.91 5.61 5.61 0 0 0 2.7.65 5.27 5.27 0 0 0 2.78-.75 1.25 1.25 0 0 1 .54-.12.85.85 0 0 1 .73.35 1 1 0 0 1 .25.67.84.84 0 0 1 -.13.46 1 1 0 0 1 -.37.35 7.85 7.85 0 0 1 -1.82.72 7.61 7.61 0 0 1 -2 .27 7.91 7.91 0 0 1 -3.66-.95 6.75 6.75 0 0 1 -2.7-2.6 7.68 7.68 0 0 1 -1-4 7.55 7.55 0 0 1 1-3.79 7 7 0 0 1 2.62-2.61 7.55 7.55 0 0 1 3.79-1 7.62 7.62 0 0 1 3.78 1 .89.89 0 0 1 .5.85z"/><path d="m25.79 91.05a.93.93 0 0 1 .28.71.88.88 0 0 1 -.28.68 1 1 0 0 1 -.71.27h-7a.91.91 0 0 1 -.71-.29.94.94 0 0 1 -.28-.7v-12.55a1 1 0 0 1 .29-.71 1 1 0 0 1 .75-.29 1 1 0 0 1 .71.29 1 1 0 0 1 .3.71v11.61h6a1 1 0 0 1 .65.27z"/><path d="m42.66 89.25a6.89 6.89 0 0 1 -2.5 2.69 7.16 7.16 0 0 1 -7.23 0 6.89 6.89 0 0 1 -2.5-2.69 8.41 8.41 0 0 1 0-7.61 6.89 6.89 0 0 1 2.5-2.64 7.1 7.1 0 0 1 7.23 0 6.89 6.89 0 0 1 2.5 2.69 8.41 8.41 0 0 1 0 7.61zm-1.86-6.62a4.84 4.84 0 0 0 -1.73-2 4.87 4.87 0 0 0 -5 0 4.81 4.81 0 0 0 -1.73 2 6.65 6.65 0 0 0 0 5.65 4.81 4.81 0 0 0 1.73 2 4.79 4.79 0 0 0 5 0 4.81 4.81 0 0 0 1.73-2 6.6 6.6 0 0 0 0-5.63z"/><path d="m50 92.5a7.09 7.09 0 0 1 -2.23-1.38 1.11 1.11 0 0 1 -.43-.86 1 1 0 0 1 1-1 .84.84 0 0 1 .61.23 5.7 5.7 0 0 0 1.71 1.13 5.3 5.3 0 0 0 2 .36 3.9 3.9 0 0 0 2.21-.6 1.78 1.78 0 0 0 .9-1.52 1.92 1.92 0 0 0 -.9-1.67 8.37 8.37 0 0 0 -2.69-1 7.21 7.21 0 0 1 -3.3-1.43 3.5 3.5 0 0 1 -1.18-2.76 3.65 3.65 0 0 1 .65-2.15 4 4 0 0 1 1.78-1.43 6.42 6.42 0 0 1 2.58-.5 7 7 0 0 1 2.43.42 5.14 5.14 0 0 1 1.86 1.14 1.2 1.2 0 0 1 .48.89 1 1 0 0 1 -.28.67.94.94 0 0 1 -.68.29.72.72 0 0 1 -.48-.17 4.35 4.35 0 0 0 -1.49-.91 5 5 0 0 0 -1.83-.38 3.79 3.79 0 0 0 -2.21.58 1.84 1.84 0 0 0 0 3.06 7.43 7.43 0 0 0 2.44.91 13.19 13.19 0 0 1 2.65.84 3.8 3.8 0 0 1 1.59 1.33 4 4 0 0 1 .56 2.22 3.57 3.57 0 0 1 -.69 2.19 4.39 4.39 0 0 1 -1.84 1.45 6.12 6.12 0 0 1 -2.55.52 7.85 7.85 0 0 1 -2.67-.47z"/><path d="m71.38 91.09a1 1 0 0 1 .28.69.92.92 0 0 1 -.28.68 1 1 0 0 1 -.72.25h-7.23a1 1 0 0 1 -1-1v-12.54a1 1 0 0 1 1-1h7.23a1 1 0 0 1 .72.27 1 1 0 0 1 .28.71.88.88 0 0 1 -.28.67 1 1 0 0 1 -.72.26h-6.17v4.24h5.23a1 1 0 0 1 .72.27.9.9 0 0 1 .28.69.84.84 0 0 1 -.28.68 1 1 0 0 1 -.72.25h-5.23v4.59h6.17a1 1 0 0 1 .72.29z"/></g><path d="m0 0h71.6v92.71h-71.6z" fill="none"/></svg>