<svg width="29" height="26" fill="none" xmlns="http://www.w3.org/2000/svg"><g clip-path="url(#clip0)"><path d="M27.88 10.925c-.235-.73-1.107-.93-1.745-1.03.436-.465 1.04-1.129.772-1.86-.37-1.161-2.315-1.892-4.562-1.76-1.376.1-2.583.599-3.456 1.03.168-.863.302-2.158-.067-3.553C18.252 1.295 16.843 0 15.77 0c-.772 0-1.242.764-1.543 1.328C13.925.764 13.454 0 12.682 0 11.609 0 10.2 1.295 9.596 3.752c-.335 1.295-.235 2.59-.1 3.52-.873-.432-2.08-.93-3.422-.996-2.214-.166-4.126.598-4.529 1.76-.235.73.37 1.394.772 1.86-.638.132-1.51.298-1.745 1.029-.335.996.47 2.723 2.65 4.084 1.141.697 2.416 1.03 3.355 1.162-.67.664-1.51 1.66-2.013 2.889-.973 2.358-.604 4.217.269 4.848.2.133.436.2.704.2.47 0 .94-.2 1.308-.4-.067.632-.167 1.495.47 1.96.302.2.704.332 1.174.332 1.074 0 2.382-.564 3.59-1.56 1.073-.897 1.744-2.06 2.113-2.856.436.896 1.14 1.992 2.18 2.855C17.581 25.436 18.856 26 19.93 26c.47 0 .873-.1 1.174-.332.638-.465.537-1.328.47-1.96.403.167.839.4 1.308.4.269 0 .503-.067.705-.233.872-.631 1.241-2.49.268-4.848-.503-1.262-1.342-2.258-2.046-2.922.872-.1 2.18-.399 3.388-1.162 2.214-1.295 3.02-3.022 2.684-4.018zM14.294 7.936c.234 0 .436.332.436 1.328 0 .997-.235 2.292-.436 2.292-.202 0-.437-1.295-.437-2.292-.033-.996.168-1.328.437-1.328zm-5.401 3.786c.067-.233.436-.332 1.409 0 .972.298 2.113.93 2.08 1.129-.068.199-1.376.033-2.349-.3-.94-.298-1.207-.597-1.14-.83zm3.153 5.412c-.604.797-.94.963-1.14.83-.202-.133-.168-.531.435-1.328.604-.797 1.544-1.727 1.711-1.594.168.1-.402 1.295-1.006 2.092zm5.434.897c-.2.133-.57 0-1.14-.83-.604-.797-1.174-1.993-1.006-2.126.167-.132 1.14.797 1.71 1.594.604.83.638 1.196.436 1.362zm.235-3.42c-.067.165-.235.298-.402.298-.034 0-.1 0-.134-.033l-2.516-.797v2.623a.406.406 0 01-.403.399.406.406 0 01-.402-.399V14.08l-2.517.797c-.033 0-.1.033-.134.033a.421.421 0 01-.402-.299c-.067-.232.033-.464.268-.53l2.516-.798-1.543-2.125c-.134-.2-.1-.432.1-.564.202-.133.437-.1.57.1l1.544 2.124 1.543-2.125a.398.398 0 01.57-.1.389.389 0 01.101.565l-1.577 2.125 2.516.797a.426.426 0 01.302.531zm.738-1.96c-.973.3-2.28.465-2.348.3-.067-.2 1.107-.83 2.08-1.13.973-.299 1.342-.232 1.409 0 .067.233-.168.531-1.14.83z" fill="#FF6D88" fill-opacity=".1"/><g clip-path="url(#clip1)"><path d="M27.88 10.925c-.235-.73-1.107-.93-1.745-1.03.436-.465 1.04-1.129.772-1.86-.37-1.161-2.315-1.892-4.562-1.76-1.376.1-2.583.599-3.456 1.03.168-.863.302-2.158-.067-3.553C18.252 1.295 16.843 0 15.77 0c-.772 0-1.242.764-1.543 1.328C13.925.764 13.454 0 12.682 0 11.609 0 10.2 1.295 9.596 3.752c-.335 1.295-.235 2.59-.1 3.52-.873-.432-2.08-.93-3.422-.996-2.214-.166-4.126.598-4.529 1.76-.235.73.37 1.394.772 1.86-.638.132-1.51.298-1.745 1.029-.335.996.47 2.723 2.65 4.084 1.141.697 2.416 1.03 3.355 1.162-.67.664-1.51 1.66-2.013 2.889-.973 2.358-.604 4.217.269 4.848.2.133.436.2.704.2.47 0 .94-.2 1.308-.4-.067.632-.167 1.495.47 1.96.302.2.704.332 1.174.332 1.074 0 2.382-.564 3.59-1.56 1.073-.897 1.744-2.06 2.113-2.856.436.896 1.14 1.992 2.18 2.855C17.581 25.436 18.856 26 19.93 26c.47 0 .873-.1 1.174-.332.638-.465.537-1.328.47-1.96.403.167.839.4 1.308.4.269 0 .503-.067.705-.233.872-.631 1.241-2.49.268-4.848-.503-1.262-1.342-2.258-2.046-2.922.872-.1 2.18-.399 3.388-1.162 2.214-1.295 3.02-3.022 2.684-4.018zM14.294 7.936c.234 0 .436.332.436 1.328 0 .997-.235 2.292-.436 2.292-.202 0-.437-1.295-.437-2.292-.033-.996.168-1.328.437-1.328zm-5.401 3.786c.067-.233.436-.332 1.409 0 .972.298 2.113.93 2.08 1.129-.068.199-1.376.033-2.349-.3-.94-.298-1.207-.597-1.14-.83zm3.153 5.412c-.604.797-.94.963-1.14.83-.202-.133-.168-.531.435-1.328.604-.797 1.544-1.727 1.711-1.594.168.1-.402 1.295-1.006 2.092zm5.434.897c-.2.133-.57 0-1.14-.83-.604-.797-1.174-1.993-1.006-2.126.167-.132 1.14.797 1.71 1.594.604.83.638 1.196.436 1.362zm.235-3.42c-.067.165-.235.298-.402.298-.034 0-.1 0-.134-.033l-2.516-.797v2.623a.406.406 0 01-.403.399.406.406 0 01-.402-.399V14.08l-2.517.797c-.033 0-.1.033-.134.033a.421.421 0 01-.402-.299c-.067-.232.033-.464.268-.53l2.516-.798-1.543-2.125c-.134-.2-.1-.432.1-.564.202-.133.437-.1.57.1l1.544 2.124 1.543-2.125a.398.398 0 01.57-.1.389.389 0 01.101.565l-1.577 2.125 2.516.797a.426.426 0 01.302.531zm.738-1.96c-.973.3-2.28.465-2.348.3-.067-.2 1.107-.83 2.08-1.13.973-.299 1.342-.232 1.409 0 .067.233-.168.531-1.14.83z" fill="#FF6D88"/></g></g><defs><clipPath id="clip0"><path d="M.5 0h28v26H.5V0z" fill="#fff"/></clipPath><clipPath id="clip1"><path fill="#fff" d="M.5 21.938h28v4.063H.5z"/></clipPath></defs></svg>